<svg width="25" height="29" viewBox="0 0 25 29" fill="none" xmlns="http://www.w3.org/2000/svg">
<path id="Vector" d="M24.6766 16.0472C25.1231 15.5785 25.105 14.8364 24.6363 14.3899C24.1675 13.9433 23.4255 13.9615 22.9789 14.4302L13.6724 24.2006V1.17221C13.6724 0.52482 13.1477 0 12.5002 0C11.8528 0 11.328 0.52482 11.328 1.17221V24.2012L2.02099 14.4302C1.57447 13.9615 0.832496 13.9433 0.363723 14.3899C-0.105035 14.8364 -0.123087 15.5785 0.32343 16.0472L11.3683 27.6425C11.6199 27.9068 11.941 28.0629 12.2748 28.1112C12.3478 28.1255 12.4231 28.133 12.5002 28.133C12.5779 28.133 12.6538 28.1255 12.7273 28.1109C13.0603 28.0623 13.3806 27.9062 13.6317 27.6425L24.6766 16.0472Z" fill="#212121"/>
</svg>
